/* XPM */
static char *result[] = {
/* columns rows colors chars-per-pixel */
"64 64 24 1 ",
"  c gray33",
". c #008C8C",
"X c #005858",
"o c #9CDCDC",
"O c #00A8A8",
"+ c #20B4B4",
"@ c #48C0C0",
"# c #00A4A4",
"$ c #74C8C8",
"% c #009898",
"& c gray99",
"* c #007C7C",
"= c #009C9C",
"- c #006C6C",
"; c #007070",
": c #D8F4F4",
"> c #008484",
", c #20B0B0",
"< c #007878",
"1 c #007474",
"2 c #B8E8E8",
"3 c #004040",
"4 c #646464",
"5 c white",
/* pixels */
"                                                                ",
".XoOOOOO+++++@@@+@@@+@+@+@++++++++++++OOOOOOOOOOOOOOOOOOOOOOOOOO",
".Xo#OO$$#O++++@+@+@+@@@@@+@+@+@+@++++++++++++++++OOOOOOOOOOO$$#O",
".Xo%#$&o.*OO++O++@+@+@+@@@@@@@+@+@+@+@+@+++++++++++++++++++$&o.*",
"%Xo%%$o#.*OOOO+O++++++@+@+@@@@@@@@@@@+@+@+@+@+@++++++++++++$o#.*",
".Xo.%%#.*O##OOOOO+O+O++++@+@+@@@@@@@@@@@@@@@+@+@+@+@+@++++++#.*O",
"%Xo...%%=#####-OOO-O+O-+++-+@+-+@@-@@@-@@@-@@@-@@+-+@+-+@+@+++++",
"%Xo....%%==#####OOOOO+O+O++++++@+@+@@@@@@@@@@@@@@@@@@@@@+@+@+@+@",
"#Xo......%%==;;;;;;;;;;;;;;;;;;;;;;;;;;;;;;;;;;;;;;;;;;:@@@@@+@+",
"#Xo>......%%%;XXXXXXXX;;;;;;;;;;;;;;;;;;;;;;;;;;;;;;;;$:@@@@@@@@",
"#Xo>>.,,#...%;X==%OOO#OOOOOO+O+O++++++++@+@+@+@@@@@@@@o:@@@@$$#O",
"#X$*>,o@.;...;X%%==O%O%#OOOOOOO+O+O+O+O++++@+@+@+@@@@@o:@@@$&o.*",
"#X$**%@#.;...;X.%%===%OOO#OOOOOOOO+O++++++++++++@+@+@@o:@@@$o#.*",
"#X$***%.;;>..-X%.%%%===O%O%#OOOOOOO+O+O+O+O++++++++@+@o:@@@+#.*O",
"#X$***;;;*.>.-X..%%%%%==O%OOO#OOOOOOOO+O+O++++++++++++o:@+@@@@@@",
"#X$<****>>*>>-X....%.%%%==%O%O%#OOOOOOOOO+O+O+O+++++++o:+@+@+@@@",
"#X$<<****>>>>-X.....%.%%%%==O%OOO#OOOOOOOO+O+O++++++++o:++++@+@+",
"%X$<<<****>>>-X......%%%.%%%==%O%O%#OOOOOOOOO+O+++O+++o:+++++++@",
"%X@<<>%%.**>>-X>.>....%.%%%%%%==O%OOO#OOOOOOOOOO+O++++o:+++O$$#O",
"%X@1<%+#.;**>-X>>.>.>..%.%.%%%%===%O%O%#OOOOOOOOO+O+O+o:O++$&o.*",
"%X@1<.##<X***-X>>>.>......%%%%%%%===O%OOO#OOOOOOOOOO+Oo:+++$o#.*",
"%X@11;<;;X<**XX>*>>.>.>....%.%.%%%%===%O%O%#OOOOOOOOOOo:O+O+#.*O",
"%X@11-XXX-*<*XX*>>>>.>......%%%%%%%%%===O%OOO#OOOOOOOOo:+O++++++",
"%X@;111<<<<*<XX**>*>>>>.>....%.%.%.%%%====%O%O%#OOOOOOo:OOO+O+O+",
"%X@;111<<<<<*XX***>>>>>>......%.%%%%%%%%====O%OOO#OOOOo:OOOOOO+O",
".X@-;1111<<<<XX****>*>>>>.>....%.%.%.%%%%%====%O%O%#OOo:OOOOOOO+",
".X@-;*%.>1<<<XX*****>>>>>>.>......%%%%%%%%%%====O%OOO#$:OOOO$$#O",
".X@--%+%.;1<<XX******>*>>>>.>......%.%.%%%%%%==%==%O%O$:OOO$&o.*",
".X@;-.%.;X11<XX<******>>>>>>.>......%.%%%%%%%%%=====O%$2O#O$o#.*",
".X@1;;;;XX1<<XX*<******>*>>>>.>......%.%.%%%%%%%%=====$2%O%+#.*O",
".X@1;-XXX-11<XX<*<******>*>>>>.>........%.%.%%%%%%%===$2O%OOO#OO",
".X@<1;--;1111XX<<*<******>*>>>>>>.>......%.%%%%%%%%%%=$2==%O%O%#",
".X+<1;--;;111XX<<<*<******>*>>>>>>........%.%.%%%%%%%%$2=%==O%OO",
">X+<<1;--;111XX<<<<*<******>*>>>>>>.>.>....%.%%%%%%%%%$2%=====%O",
".X+<<*.*--;11XX1<<<<*<******>*>>>>>>.>........%.%%%%%%$2%%%O$$#O",
">X+<<.#%*;;;1XX11<<<<*<******>*>*>>>>.>.>......%.%.%%%@o%%%$&o.*",
">X+*<.%.;X-;1XX111<<<<*<******>*>>>>>>.>........%.%%%%@o%%%$o#.*",
">X+*<;;;XX--;XX1111<<<<*<******>*>*>>>>.>.>......%.%.%@o%%%%#.*O",
"*X,**-XXX---;XX111<1<<<<*<********>>>>>>.>..........%.@o%%%%%%%%",
"*X,**<<11;---XX1111<1<<<<*<******>*>*>>>>.>.>......%.%@o%%%%%%%%",
">X,**<<<1;;--XX11111<1<<<<*<********>>>>>>>>..........@$%%%%%%%%",
"*X,***<<11;;-XX;11111<<<<<<*<******>*>*>*>>>>.>.......@$.%%%.%%%",
"*X,**>%.<;;;-XX;;11111<<<<<<*<********>>>>>>>>.>......@$..%O@@#.",
"*X,>*%+%.;1;;XX-;111111<<<<<<*<******>*>*>*>>>>.>.....@$.%.@o$.*",
"*X,>*.%.;X1;;XX-;;111111<<<<<<*<********>>>>>>>>.>....+$...+$$.*",
"<X,>>;;;XX11;XX--;;111111<<<<<<*<******>*>*>*>>>>.>...+$....#.*.",
"<X,>>-XXX-11;XX---;1111111<<<<<<*<********>*>>>>>>.>..+$......%.",
"<X,>>***<<<11XX---;;11111<1<<<<<<*<******>*>*>*>>>>.>.+@.......%",
"<X,>>>**<<<11XX;---;;11111<1<<<<<<*<********>*>>>>>>>>+@........",
"<X,>>>***<<<1XX;----;111111<1<<<<<<*<******>*>*>*>>>>>,@........",
"<X,>>>%..*<<1XX;;---;;111111<1<<<<<<*<********>*>>>>>>,@.>..++#.",
"<X,>>%+%.;<<1XX;;;---;;111111<1<<<<<<*<******>*>*>*>>>#@>.>+o@.*",
"<X,>>.%.;X<<<XX;;;----;1111111<1<<<<<<*<********>*>>>>#+>>.+@#>;",
"<X,.>;;;XX<<<XX1;;;---;-1111111<<<<<<<<*<******>*>*>*>#+>>>.#.*;",
"<X,.>-XXX-*<<X-...>>>>>>>>......................%%%%###+>>>>.;;.",
"<X,.>>>>***<<X>%%.............%%%%%%%##############,++++>>>>>...",
"<X,.>>>>****<<111;;;----;-111111<<<<<<<<<**<********>*>>>>>>>>>.",
"<X,.>>>>****<<31113;;-3--;3111311<3<<<3<<<3*<*3***3>*>3>*>>>>>>>",
"1X,..*%%<***<<<111;;;;----;1111111<<<<<<<<<<*<********>*>>>>##.>",
"1X,..%@,*-***<<<111;;;----;-1111111<1<<<<<<<<*<******>*>*>*#$+.;",
"1X,..%,>-X***<<<111;;;;----;;1111111<1<<<<<<<<*<********>*>#+#>;",
"1X,..*--XX****<<<111;;;-----;11111111<1<<<<<<<<*<******>*>*>>>;;",
"1X,..-XXX;****<<<111;;;;----;-11111111<1<<<<<<<<*<********>*;;;>",
"4444444444444444444444444444444444444444444444444444444444444444"
};
